<svg id="Capa_1" enable-background="new 0 0 512 512" height="512" viewBox="0 0 512 512" width="512" xmlns="http://www.w3.org/2000/svg" xmlns:xlink="http://www.w3.org/1999/xlink"><linearGradient id="SVGID_1_" gradientUnits="userSpaceOnUse" x1="256" x2="256" y1="512" y2="0"><stop offset="0" stop-color="#ffc2cc"/><stop offset="1" stop-color="#fff2f4"/></linearGradient><linearGradient id="SVGID_2_" gradientUnits="userSpaceOnUse" x1="256" x2="256" y1="362.5" y2="149.5"><stop offset="0" stop-color="#ffa68d"/><stop offset="1" stop-color="#fd3a84"/></linearGradient><g><g><circle cx="256" cy="256" fill="url(#SVGID_1_)" r="256"/></g><g><g><path d="m380.353 149.5c-14.694 0-26.647 11.943-26.647 26.625v44.375h-17.765v44.375c0 4.906-3.973 8.875-8.882 8.875h-177.647c-4.909 0-8.882-3.969-8.882-8.875v-44.375h-26.647c-4.91 0-8.882 3.969-8.882 8.875v106.5c0 14.682 11.953 26.625 26.647 26.625h213.177c14.694 0 26.647-11.943 26.647-26.625 0-5.715 0-118.831 0-124.25 0-4.897 3.981-8.875 8.882-8.875 14.694 0 26.647-11.943 26.647-26.625s-11.954-26.625-26.648-26.625zm-53.294 159.75h-26.647v8.875c0 4.906-3.973 8.875-8.882 8.875s-8.882-3.969-8.882-8.875v-8.875h-133.236c-4.909 0-8.882-3.969-8.882-8.875s3.973-8.875 8.882-8.875h177.647c4.909 0 8.882 3.969 8.882 8.875s-3.973 8.875-8.882 8.875zm53.294-124.25c-3.114 0-6.107.537-8.882 1.517v-10.392c0-4.897 3.981-8.875 8.882-8.875s8.882 3.978 8.882 8.875-3.981 8.875-8.882 8.875zm-62.176 35.5h-159.883v35.5h159.882v-35.5z" fill="url(#SVGID_2_)"/></g></g></g></svg>