<svg id="Capa_1" enable-background="new 0 0 512 512" height="512" viewBox="0 0 512 512" width="512" xmlns="http://www.w3.org/2000/svg" xmlns:xlink="http://www.w3.org/1999/xlink"><linearGradient id="SVGID_1_" gradientUnits="userSpaceOnUse" x1="256" x2="256" y1="512" y2="0"><stop offset="0" stop-color="#ffbef9"/><stop offset="1" stop-color="#fff1ff"/></linearGradient><linearGradient id="SVGID_2_" gradientUnits="userSpaceOnUse" x1="256" x2="256" y1="407" y2="105"><stop offset="0" stop-color="#ff81ff"/><stop offset="1" stop-color="#a93aff"/></linearGradient><g><g><circle cx="256" cy="256" fill="url(#SVGID_1_)" r="256"/></g><g><g><path d="m158.294 398.118c0 4.905 3.977 8.882 8.882 8.882h97.706v-79.941c0-4.91 3.973-8.882 8.882-8.882h79.941v-213.177h-195.411zm124.353 3.677 65.853-65.854h-65.853zm115.471-261.266h-8.882v-26.647c0-4.91-3.973-8.882-8.882-8.882h-8.882v88.823h8.882c4.909 0 8.882-3.973 8.882-8.882v-26.647h8.882c4.91 0 8.882-3.973 8.882-8.883 0-4.909-3.973-8.882-8.882-8.882zm-275.353-26.647v26.647h-8.882c-4.91 0-8.882 3.973-8.882 8.882 0 4.91 3.973 8.883 8.882 8.883h8.882v26.647c0 4.91 3.973 8.882 8.882 8.882h8.882v-88.823h-8.882c-4.909 0-8.882 3.973-8.882 8.882z" fill="url(#SVGID_2_)"/></g></g></g></svg>