<svg id="Capa_1" enable-background="new 0 0 512 512" height="512" viewBox="0 0 512 512" width="512" xmlns="http://www.w3.org/2000/svg" xmlns:xlink="http://www.w3.org/1999/xlink"><linearGradient id="SVGID_1_" gradientUnits="userSpaceOnUse" x1="256" x2="256" y1="512" y2="0"><stop offset="0" stop-color="#ffbef9"/><stop offset="1" stop-color="#fff1ff"/></linearGradient><linearGradient id="SVGID_2_" gradientTransform="matrix(.707 .707 -.756 .756 289.973 -141.92)" gradientUnits="userSpaceOnUse" x1="274.349" x2="274.349" y1="482.225" y2="91.225"><stop offset="0" stop-color="#ff81ff"/><stop offset="1" stop-color="#a93aff"/></linearGradient><g><g><circle cx="256" cy="256" fill="url(#SVGID_1_)" r="256"/></g><g><g><path d="m403 109c-23.367-23.367-116.308 68.225-126.829 78.745l-25.697 25.697 48.083 48.083 25.697-25.697c3.514-3.514 16.11-16.305 30.409-32.545 1.222 15.106-4.442 30.62-16.061 42.239l-60.145 60.145c-3.551 3.551-3.736 9.112-.414 12.435 3.322 3.322 8.884 3.137 12.435-.414l60.145-60.145c19.415-19.415 26.285-46.867 18.556-71.35 24.338-29.844 46.789-64.225 33.821-77.193zm-165.374 117.291-12.848 12.848 48.083 48.083 12.848-12.848zm-89.938 89.938c-4.308 4.308-8.111 9.058-11.865 13.832l46.115 46.115c4.774-3.753 9.524-7.556 13.832-11.865l64.242-64.242-48.083-48.083zm-42.436 80.904c-.486 2.751.345 5.489 2.235 7.379s4.628 2.721 7.379 2.235c18.226-3.194 35.751-10.359 51.813-20.133l-41.294-41.293c-9.774 16.062-16.939 33.586-20.133 51.812z" fill="url(#SVGID_2_)"/></g></g></g></svg>