<svg id="Capa_1" enable-background="new 0 0 512 512" height="512" viewBox="0 0 512 512" width="512" xmlns="http://www.w3.org/2000/svg" xmlns:xlink="http://www.w3.org/1999/xlink"><linearGradient id="SVGID_1_" gradientUnits="userSpaceOnUse" x1="256" x2="256" y1="512" y2="0"><stop offset="0" stop-color="#addcff"/><stop offset=".5028" stop-color="#eaf6ff"/><stop offset="1" stop-color="#eaf6ff"/></linearGradient><linearGradient id="SVGID_2_" gradientUnits="userSpaceOnUse" x1="256" x2="256" y1="371.5" y2="140.5"><stop offset="0" stop-color="#00c0ff"/><stop offset="1" stop-color="#5558ff"/></linearGradient><g><g><circle cx="256" cy="256" fill="url(#SVGID_1_)" r="256"/></g><g><g><path d="m398.118 211.577h-132.643c1.458-13.474 9.19-25.135 20.294-29.031 14.07-4.928 23.524-18.255 23.524-33.161 0-4.911-3.973-8.885-8.882-8.885-4.91 0-8.882 3.974-8.882 8.885 0 7.366-4.675 13.952-11.632 16.39-18.372 6.448-30.949 24.567-32.476 45.802h-133.539c-4.91 0-8.882 3.974-8.882 8.885v142.154c0 4.911 3.973 8.885 8.882 8.885h284.235c4.91 0 8.882-3.974 8.882-8.885v-142.155c.001-4.91-3.972-8.884-8.881-8.884zm-142.118 35.538h17.765c4.91 0 8.882 3.974 8.882 8.885s-3.973 8.885-8.882 8.885h-17.765c-4.91 0-8.882-3.974-8.882-8.885s3.972-8.885 8.882-8.885zm-8.882 44.424c0 4.911-3.973 8.884-8.882 8.884h-17.765c-4.91 0-8.882-3.974-8.882-8.884 0-4.911 3.973-8.885 8.882-8.885h17.765c4.909 0 8.882 3.973 8.882 8.885zm-44.412-44.424h17.765c4.91 0 8.882 3.974 8.882 8.885s-3.973 8.885-8.882 8.885h-17.765c-4.91 0-8.882-3.974-8.882-8.885s3.972-8.885 8.882-8.885zm-53.294 0h17.765c4.91 0 8.882 3.974 8.882 8.885s-3.973 8.885-8.882 8.885h-17.765c-4.91 0-8.882-3.974-8.882-8.885s3.972-8.885 8.882-8.885zm17.764 88.846h-17.765c-4.91 0-8.882-3.974-8.882-8.884 0-4.911 3.973-8.885 8.882-8.885h17.765c4.91 0 8.882 3.974 8.882 8.885.001 4.911-3.972 8.884-8.882 8.884zm17.765-35.538h-35.529c-4.91 0-8.882-3.974-8.882-8.884 0-4.911 3.973-8.885 8.882-8.885h35.529c4.91 0 8.882 3.974 8.882 8.885.001 4.91-3.972 8.884-8.882 8.884zm106.588 35.538h-88.824c-4.91 0-8.882-3.974-8.882-8.884 0-4.911 3.973-8.885 8.882-8.885h88.824c4.91 0 8.882 3.974 8.882 8.885.001 4.911-3.972 8.884-8.882 8.884zm0-35.538h-17.765c-4.91 0-8.882-3.974-8.882-8.884 0-4.911 3.973-8.885 8.882-8.885h17.765c4.91 0 8.882 3.974 8.882 8.885.001 4.91-3.972 8.884-8.882 8.884zm71.059 35.538h-35.529c-4.91 0-8.882-3.974-8.882-8.884 0-4.911 3.973-8.885 8.882-8.885h35.529c4.91 0 8.882 3.974 8.882 8.885.001 4.911-3.972 8.884-8.882 8.884zm0-35.538h-17.765c-4.91 0-8.882-3.974-8.882-8.884 0-4.911 3.973-8.885 8.882-8.885h17.765c4.91 0 8.882 3.974 8.882 8.885.001 4.91-3.972 8.884-8.882 8.884zm0-35.538h-35.529c-4.91 0-8.882-3.974-8.882-8.885s3.973-8.885 8.882-8.885h35.529c4.91 0 8.882 3.974 8.882 8.885s-3.972 8.885-8.882 8.885z" fill="url(#SVGID_2_)"/></g></g></g></svg>