<svg id="Capa_1" enable-background="new 0 0 512 512" height="512" viewBox="0 0 512 512" width="512" xmlns="http://www.w3.org/2000/svg" xmlns:xlink="http://www.w3.org/1999/xlink"><linearGradient id="SVGID_1_" gradientUnits="userSpaceOnUse" x1="256" x2="256" y1="512" y2="0"><stop offset="0" stop-color="#c3ffe8"/><stop offset=".9973" stop-color="#f0fff4"/></linearGradient><linearGradient id="SVGID_2_" gradientUnits="userSpaceOnUse" x1="256" x2="256" y1="407" y2="105"><stop offset="0" stop-color="#9cffac"/><stop offset="1" stop-color="#00b59c"/></linearGradient><g><g><circle cx="256" cy="256" fill="url(#SVGID_1_)" r="256"/></g><g><g><path d="m282.647 401.795 48.09-48.09h-48.09zm44.412-154.677h-159.883c-4.91 0-8.882 3.973-8.882 8.882v142.118c0 4.91 3.973 8.882 8.882 8.882h97.706v-62.177c0-4.91 3.973-8.882 8.882-8.882h62.176v-79.941c.001-4.91-3.972-8.882-8.881-8.882zm71.059-53.295c4.91 0 8.882-3.973 8.882-8.882v-71.059c0-4.91-3.973-8.882-8.882-8.882h-106.589c-4.91 0-8.882 3.973-8.882 8.882v71.059c0 4.91 3.973 8.882 8.882 8.882h44.412v17.765h-222.059c-4.91 0-8.882 3.973-8.882 8.882v71.059c0 4.91 3.973 8.882 8.882 8.882h26.647v-44.411c0-14.694 11.953-26.647 26.647-26.647h159.882c14.694 0 26.647 11.953 26.647 26.647v44.412h44.412c4.91 0 8.882-3.973 8.882-8.882v-71.059c0-4.91-3.973-8.882-8.882-8.882h-44.412v-17.765h44.413zm-17.765 53.295c4.905 0 8.882 3.976 8.882 8.882 0 4.905-3.977 8.882-8.882 8.882s-8.882-3.977-8.882-8.882c0-4.906 3.977-8.882 8.882-8.882zm-8.882 151c0 4.91 3.973 8.882 8.882 8.882s8.882-3.973 8.882-8.882v-79.941h-17.765v79.941zm-248.706 0c0 4.91 3.973 8.882 8.882 8.882 4.91 0 8.882-3.973 8.882-8.882v-79.941h-17.765v79.941z" fill="url(#SVGID_2_)"/></g></g></g></svg>