<svg id="Capa_1" enable-background="new 0 0 512 512" height="512" viewBox="0 0 512 512" width="512" xmlns="http://www.w3.org/2000/svg" xmlns:xlink="http://www.w3.org/1999/xlink"><linearGradient id="SVGID_1_" gradientUnits="userSpaceOnUse" x1="256" x2="256" y1="512" y2="0"><stop offset="0" stop-color="#c3ffe8"/><stop offset=".9973" stop-color="#f0fff4"/></linearGradient><linearGradient id="SVGID_2_" gradientUnits="userSpaceOnUse" x1="256" x2="256" y1="407" y2="105"><stop offset="0" stop-color="#9cffac"/><stop offset="1" stop-color="#00b59c"/></linearGradient><g><g><circle cx="256" cy="256" fill="url(#SVGID_1_)" r="256"/></g><g><g><path d="m282.332 326.931v-213.054c0-4.907-3.966-8.877-8.867-8.877h-97.532v62.141c0 4.907-3.966 8.877-8.867 8.877h-62.066v150.913c0 4.907 3.966 8.877 8.867 8.877h159.599c4.9 0 8.866-3.97 8.866-8.877zm-124.132-216.73-48.004 48.062h48.004zm248.333 94.035c-.762-2.228-2.364-4.066-4.477-5.106l-41.324-20.402-42.147 189.33c-1.541 6.935-5.698 12.865-11.707 16.688-5.994 3.818-13.266 5.065-20.166 3.485l-41.818-9.347 55.143 27.206c4.471 2.177 9.739.302 11.871-4.04l94.173-191.034c1.041-2.107 1.206-4.552.452-6.78zm-109.161 165.521c1.992-1.266 3.394-3.26 3.905-5.566l46.273-207.87c.52-2.306.104-4.716-1.152-6.71s-3.256-3.398-5.55-3.918l-40.783-9.179v190.417c0 14.686-11.932 26.632-26.6 26.632h-60.459l77.681 17.365c2.22.51 4.657.121 6.685-1.171z" fill="url(#SVGID_2_)"/></g></g></g></svg>