<svg id="Capa_1" enable-background="new 0 0 512 512" height="512" viewBox="0 0 512 512" width="512" xmlns="http://www.w3.org/2000/svg" xmlns:xlink="http://www.w3.org/1999/xlink"><linearGradient id="SVGID_1_" gradientUnits="userSpaceOnUse" x1="256" x2="256" y1="512" y2="0"><stop offset="0" stop-color="#ffc2cc"/><stop offset="1" stop-color="#fff2f4"/></linearGradient><linearGradient id="SVGID_2_" gradientUnits="userSpaceOnUse" x1="256" x2="256" y1="353.5" y2="158.5"><stop offset="0" stop-color="#ffa68d"/><stop offset="1" stop-color="#fd3a84"/></linearGradient><g><g><circle cx="256" cy="256" fill="url(#SVGID_1_)" r="256"/></g><g><g><path d="m158.294 229.409h53.294v-17.727h-53.294zm239.824-70.909h-284.236c-4.91 0-8.882 3.964-8.882 8.864v97.5h302v-97.5c0-4.9-3.973-8.864-8.882-8.864zm-71.059 35.455c4.905 0 8.882 3.968 8.882 8.864 0 4.895-3.977 8.864-8.882 8.864s-8.882-3.969-8.882-8.864c-.001-4.897 3.977-8.864 8.882-8.864zm-97.706 44.318c0 4.899-3.973 8.864-8.882 8.864h-71.059c-4.91 0-8.882-3.964-8.882-8.864v-35.455c0-4.899 3.973-8.864 8.882-8.864h71.059c4.91 0 8.882 3.964 8.882 8.864zm133.235 8.863h-35.529c-4.91 0-8.882-3.964-8.882-8.864s3.973-8.864 8.882-8.864h35.529c4.91 0 8.882 3.964 8.882 8.864s-3.972 8.864-8.882 8.864zm0-35.454c-4.905 0-8.882-3.969-8.882-8.864 0-4.896 3.977-8.864 8.882-8.864s8.882 3.968 8.882 8.864c.001 4.895-3.977 8.864-8.882 8.864zm-257.588 132.954c0 4.899 3.973 8.864 8.882 8.864h26.647v-44.318c0-4.899 3.973-8.864 8.882-8.864 4.91 0 8.882 3.965 8.882 8.864v44.318h17.765v-44.318c0-4.899 3.973-8.864 8.882-8.864 4.91 0 8.882 3.965 8.882 8.864v44.318h17.765v-44.318c0-4.899 3.973-8.864 8.882-8.864 4.91 0 8.882 3.965 8.882 8.864v44.318h17.765v-44.318c0-4.899 3.973-8.864 8.882-8.864s8.882 3.965 8.882 8.864v44.318h17.765v-44.318c0-4.899 3.973-8.864 8.882-8.864 4.91 0 8.882 3.965 8.882 8.864v44.318h17.765v-44.318c0-4.899 3.973-8.864 8.882-8.864 4.91 0 8.882 3.965 8.882 8.864v44.318h17.765v-44.318c0-4.899 3.973-8.864 8.882-8.864s8.882 3.965 8.882 8.864v44.318h26.647c4.91 0 8.882-3.964 8.882-8.864v-62.045h-301.996z" fill="url(#SVGID_2_)"/></g></g></g></svg>