<svg id="Capa_1" enable-background="new 0 0 512 512" height="512" viewBox="0 0 512 512" width="512" xmlns="http://www.w3.org/2000/svg" xmlns:xlink="http://www.w3.org/1999/xlink"><linearGradient id="SVGID_1_" gradientUnits="userSpaceOnUse" x1="256" x2="256" y1="512" y2="0"><stop offset="0" stop-color="#addcff"/><stop offset=".5028" stop-color="#eaf6ff"/><stop offset="1" stop-color="#eaf6ff"/></linearGradient><linearGradient id="SVGID_2_" gradientUnits="userSpaceOnUse" x1="256" x2="256" y1="407" y2="105"><stop offset="0" stop-color="#00c0ff"/><stop offset="1" stop-color="#5558ff"/></linearGradient><g><g><circle cx="256" cy="256" fill="url(#SVGID_1_)" r="256"/></g><g><g><path d="m198.28 247.118c4.119 0 7.701-2.836 8.646-6.844.373-1.579 9.114-38.938 9.114-64.215 0-25.276-8.741-62.636-9.114-64.215-.945-4.007-4.527-6.844-8.646-6.844h-35.52c-4.119 0-7.701 2.836-8.646 6.844-.373 1.579-9.114 38.938-9.114 64.215s8.741 62.636 9.114 64.215c.945 4.008 4.527 6.844 8.646 6.844h8.88v42.313l-16.823 33.656c-.616 1.232-.937 2.594-.937 3.973v71.059c0 4.91 3.972 8.882 8.88 8.882h35.52c4.908 0 8.88-3.973 8.88-8.882v-71.059c0-1.379-.321-2.741-.937-3.973l-16.823-33.657v-42.313h8.88zm62.16 133.235c0 14.694 11.95 26.647 26.64 26.647s26.64-11.953 26.64-26.647v-168.765h-53.28zm97.68-275.353h-124.32c-4.908 0-8.88 3.973-8.88 8.882v53.294c0 4.91 3.972 8.882 8.88 8.882h26.64v17.765h53.28v-17.765h8.88c2.359 0 4.613-.937 6.278-2.602l35.52-35.529c1.665-1.666 2.602-3.921 2.602-6.28v-17.765c0-4.909-3.972-8.882-8.88-8.882z" fill="url(#SVGID_2_)"/></g></g></g></svg>