<?xml version="1.0" encoding="UTF-8" standalone="no"?>
<!-- Created with Inkscape (http://www.inkscape.org/) -->

<svg
        xmlns="http://www.w3.org/2000/svg"
        width="24"
        height="24"
        viewBox="0 0 6.3499999 6.3500002"
        version="1.1"
        id="svg8"
        >
  <defs
          id="defs2">
    <pattern
            y="0"
            x="0"
            height="6"
            width="6"
            patternUnits="userSpaceOnUse"
            id="EMFhbasepattern" />
    <pattern
            y="0"
            x="0"
            height="6"
            width="6"
            patternUnits="userSpaceOnUse"
            id="EMFhbasepattern-3" />
    <pattern
            y="0"
            x="0"
            height="6"
            width="6"
            patternUnits="userSpaceOnUse"
            id="EMFhbasepattern-2" />
  </defs>
  <metadata
          id="metadata5">
  </metadata>
  <g
          id="layer1"
          transform="translate(0,-290.64999)">
    <path
            style="fill:#000000;fill-opacity:1;stroke:none;stroke-width:0.26458335;stroke-linecap:round;stroke-linejoin:miter;stroke-miterlimit:4;stroke-dasharray:none;stroke-opacity:1"
            d="m 1.0810713,292.23077 2.0949623,1.44539 0.047058,-0.0325 0.1098026,-0.076 a 0.1487421,0.1323049 0 0 1 0.00465,-0.003 l 1.932873,-1.33377 z m 4.4751788,0.13746 -1.9032436,1.31207 1.9032436,1.56993 z m -4.76043302,5.2e-4 v 2.87786 L 2.6915082,293.6772 Z m 2.13330612,1.47226 -1.8945292,1.56838 h 4.2770697 l -1.8962721,-1.56373 -0.1487272,0.10284 a 0.1487421,0.1323049 0 0 1 -0.1824235,0 l -5.949e-4,-5.3e-4 z"
            id="path1241"
    />
  </g>
</svg>
