<svg id="Capa_1" enable-background="new 0 0 512 512" height="512" viewBox="0 0 512 512" width="512" xmlns="http://www.w3.org/2000/svg" xmlns:xlink="http://www.w3.org/1999/xlink"><linearGradient id="SVGID_1_" gradientUnits="userSpaceOnUse" x1="256" x2="256" y1="512" y2="0"><stop offset="0" stop-color="#c3ffe8"/><stop offset=".9973" stop-color="#f0fff4"/></linearGradient><linearGradient id="SVGID_2_" gradientUnits="userSpaceOnUse" x1="256" x2="256" y1="407" y2="105"><stop offset="0" stop-color="#9cffac"/><stop offset="1" stop-color="#00b59c"/></linearGradient><g><g><circle cx="256" cy="256" fill="url(#SVGID_1_)" r="256"/></g><g><g><path d="m181.573 221.161c0-14.64-11.904-26.548-26.537-26.548s-26.536 11.908-26.536 26.548 11.904 26.548 26.537 26.548 26.536-11.909 26.536-26.548zm186.828 36.469c3.455-3.457 3.455-9.057 0-12.514l-25.016-25.027c-3.455-3.457-9.053-3.457-12.508 0s-3.455 9.057 0 12.514l25.016 25.027c3.455 3.457 9.053 3.457 12.508 0zm-40.98 14.649c4.63-1.538 7.135-6.551 5.589-11.191l-6.254-18.771c-1.546-4.641-6.531-7.164-11.187-5.591-4.63 1.538-7.135 6.551-5.589 11.192l6.254 18.771c1.537 4.61 6.526 7.144 11.187 5.59zm50.033-66.838-18.762-6.257c-4.665-1.564-9.64.959-11.187 5.591-1.546 4.641.959 9.653 5.589 11.191l18.762 6.257c4.665 1.556 9.651-.983 11.187-5.591 1.546-4.64-.959-9.653-5.589-11.191zm-36.661 166.161h-168.065c-4.885 0-8.846 3.962-8.846 8.849v17.699c0 4.887 3.961 8.849 8.846 8.849h193.105c5.743 0 10.387-5.514 8.604-10.977-4.628-14.162-17.958-24.42-33.644-24.42zm-159.22-17.699h88.456v-26.548c0-24.397-19.842-44.247-44.228-44.247-5.895 0-11.501 1.208-16.648 3.311l-22.741-34.126c-4.163 4.2-9.169 7.534-14.727 9.805l22.741 34.126c-7.933 8.001-12.853 18.999-12.853 31.131zm123.838-8.849v8.849h17.691v-8.849c0-4.891-3.956-8.849-8.846-8.849-4.889-.001-8.845 3.957-8.845 8.849zm-48.488-96.511c1.234 2.596 3.655 4.429 6.487 4.916 2.832.488 5.724-.43 7.756-2.463l90.612-90.652c2.031-2.032 2.95-4.923 2.464-7.755-.485-2.832-2.315-5.252-4.907-6.49-12.924-6.172-29.25-4.138-40.302 6.919l-55.198 55.223c-10.871 10.882-13.175 27.137-6.912 40.302zm-60.968-44.038 41.597-27.744 16.362 16.369 50.02-50.033-27.651-27.663c-14.37-14.395-36.845-13.403-49.964-.052-12.991 12.78-14.42 33.859-1.354 48.504l-38.812 25.886c4.199 4.164 7.531 9.173 9.802 14.733z" fill="url(#SVGID_2_)"/></g></g></g></svg>