<svg id="Capa_1" enable-background="new 0 0 512 512" height="512" viewBox="0 0 512 512" width="512" xmlns="http://www.w3.org/2000/svg" xmlns:xlink="http://www.w3.org/1999/xlink"><linearGradient id="SVGID_1_" gradientUnits="userSpaceOnUse" x1="256" x2="256" y1="512" y2="0"><stop offset="0" stop-color="#addcff"/><stop offset=".5028" stop-color="#eaf6ff"/><stop offset="1" stop-color="#eaf6ff"/></linearGradient><linearGradient id="SVGID_2_" gradientUnits="userSpaceOnUse" x1="256" x2="256" y1="327" y2="185"><stop offset="0" stop-color="#00c0ff"/><stop offset="1" stop-color="#5558ff"/></linearGradient><g><g><circle cx="256" cy="256" fill="url(#SVGID_1_)" r="256"/></g><g><g><path d="m380.353 291.5c4.909 0 8.882-3.969 8.882-8.875 0-1.672 0-25.067 0-26.625h-142.117v17.75h124.353v8.875c0 4.906 3.972 8.875 8.882 8.875zm26.647-62.125v-17.75c0-14.682-11.953-26.625-26.647-26.625h-230.941c-24.487 0-44.412 19.908-44.412 44.375v53.25c0 4.906 3.973 8.875 8.882 8.875h8.882v17.75h-8.882c-4.91 0-8.882 3.969-8.882 8.875s3.973 8.875 8.882 8.875h284.235c4.91 0 8.882-3.969 8.882-8.875s-3.973-8.875-8.882-8.875h-186.529v-17.75h8.882c4.909 0 8.882-3.969 8.882-8.875v-44.375h168.765c4.91 0 8.883-3.969 8.883-8.875zm-222.059 26.625h-35.53c-4.909 0-8.882-3.969-8.882-8.875s3.973-8.875 8.882-8.875h35.53c4.91 0 8.882 3.969 8.882 8.875s-3.972 8.875-8.882 8.875z" fill="url(#SVGID_2_)"/></g></g></g></svg>