<svg id="Capa_1" enable-background="new 0 0 512 512" height="512" viewBox="0 0 512 512" width="512" xmlns="http://www.w3.org/2000/svg" xmlns:xlink="http://www.w3.org/1999/xlink"><linearGradient id="SVGID_1_" gradientUnits="userSpaceOnUse" x1="256" x2="256" y1="512" y2="0"><stop offset="0" stop-color="#addcff"/><stop offset=".5028" stop-color="#eaf6ff"/><stop offset="1" stop-color="#eaf6ff"/></linearGradient><linearGradient id="SVGID_2_" gradientUnits="userSpaceOnUse" x1="256" x2="256" y1="398" y2="114"><stop offset="0" stop-color="#00c0ff"/><stop offset="1" stop-color="#5558ff"/></linearGradient><g><g><circle cx="256" cy="256" fill="url(#SVGID_1_)" r="256"/></g><g><g><path d="m113.882 238.25h71.059c4.91 0 8.882-3.969 8.882-8.875 0-4.897 3.981-8.875 8.882-8.875h88.824c4.901 0 8.882 3.978 8.882 8.875v115.375h88.824v-186.375c0-4.906-3.973-8.875-8.882-8.875h-71.059c-4.91 0-8.882 3.969-8.882 8.875 0 4.897-3.981 8.875-8.882 8.875h-88.824c-4.901 0-8.882-3.978-8.882-8.875 0-24.467-19.925-44.375-44.412-44.375s-44.412 19.908-44.412 44.375v71c0 4.906 3.973 8.875 8.882 8.875zm230.942-17.75c4.905 0 8.882 3.974 8.882 8.875s-3.977 8.875-8.882 8.875-8.882-3.974-8.882-8.875 3.976-8.875 8.882-8.875zm-8.883 44.375c0-4.906 3.973-8.875 8.882-8.875 4.91 0 8.882 3.969 8.882 8.875v35.5c0 4.906-3.973 8.875-8.882 8.875-4.91 0-8.882-3.969-8.882-8.875zm62.177 97.625h-275.353c-9.812 0-17.765 7.947-17.765 17.75v8.875c0 4.901 3.977 8.875 8.882 8.875h284.235c4.905 0 8.882-3.974 8.882-8.875v-17.75c.001-4.901-3.976-8.875-8.881-8.875zm-230.942-88.75c4.91 0 8.882-3.969 8.882-8.875v-8.875h-53.294v8.875c0 4.906 3.973 8.875 8.882 8.875h8.882v44.375c0 4.906 3.973 8.875 8.882 8.875 4.91 0 8.882-3.969 8.882-8.875v-8.875h8.882c4.91 0 8.882-3.969 8.882-8.875s-3.973-8.875-8.882-8.875h-8.882v-17.75z" fill="url(#SVGID_2_)"/></g></g></g></svg>