<svg id="Capa_1" enable-background="new 0 0 512 512" height="512" viewBox="0 0 512 512" width="512" xmlns="http://www.w3.org/2000/svg" xmlns:xlink="http://www.w3.org/1999/xlink"><linearGradient id="SVGID_1_" gradientUnits="userSpaceOnUse" x1="256" x2="256" y1="512" y2="0"><stop offset="0" stop-color="#ffc2cc"/><stop offset="1" stop-color="#fff2f4"/></linearGradient><linearGradient id="SVGID_2_" gradientUnits="userSpaceOnUse" x1="256" x2="256" y1="407" y2="105"><stop offset="0" stop-color="#ffa68d"/><stop offset="1" stop-color="#fd3a84"/></linearGradient><g><g><circle cx="256" cy="256" fill="url(#SVGID_1_)" r="256"/></g><g><g><path d="m238.713 276.306c6.067 5.152 13.776 7.243 21.842 5.968 12.62-2.047 22.146-14.165 22.146-28.173v-78.042h-17.206c1.461-13.471 9.209-25.129 20.335-29.023 14.097-4.927 23.571-18.25 23.571-33.153 0-4.91-3.981-8.882-8.9-8.882s-8.9 3.973-8.9 8.882c0 7.364-4.685 13.948-11.655 16.385-18.408 6.446-31.011 24.561-32.541 45.791h-18.105v79.941c0 7.824 3.433 15.232 9.413 20.306zm8.387-55.835c0-4.91 3.981-8.882 8.9-8.882s8.9 3.973 8.9 8.882v35.529c0 4.91-3.981 8.882-8.9 8.882s-8.9-3.973-8.9-8.882zm53.4-44.412v78.042c0 22.622-15.949 42.269-37.086 45.713-13.479 2.154-26.533-1.737-36.234-9.976-9.96-8.457-15.679-20.792-15.679-33.838v-79.941c-24.536 0-44.5 19.925-44.5 44.412v97.706c-.001 48.974 39.927 88.823 88.999 88.823s89-39.849 89-88.824v-97.706c0-24.487-19.964-44.411-44.5-44.411z" fill="url(#SVGID_2_)"/></g></g></g></svg>