<svg id="Capa_1" enable-background="new 0 0 512 512" height="512" viewBox="0 0 512 512" width="512" xmlns="http://www.w3.org/2000/svg" xmlns:xlink="http://www.w3.org/1999/xlink"><linearGradient id="SVGID_1_" gradientUnits="userSpaceOnUse" x1="256" x2="256" y1="512" y2="0"><stop offset="0" stop-color="#c3ffe8"/><stop offset=".9973" stop-color="#f0fff4"/></linearGradient><linearGradient id="SVGID_2_" gradientUnits="userSpaceOnUse" x1="256" x2="256" y1="407" y2="105"><stop offset="0" stop-color="#9cffac"/><stop offset="1" stop-color="#00b59c"/></linearGradient><g><g><circle cx="256" cy="256" fill="url(#SVGID_1_)" r="256"/></g><g><g><path d="m256 229.353c4.902 0 8.885-3.981 8.885-8.882s-3.982-8.882-8.885-8.882-8.885 3.981-8.885 8.882 3.983 8.882 8.885 8.882zm-106.615 17.765h71.077c14.698 0 26.654 11.953 26.654 26.647 0 4.901 3.982 8.882 8.885 8.882s8.885-3.981 8.885-8.882c0-14.694 11.956-26.647 26.654-26.647h71.077c1.889 0 3.728.211 5.507.586 2.138-8.87 3.377-17.991 3.377-27.233-.001-63.669-51.816-115.471-115.501-115.471s-115.5 51.802-115.5 115.471c0 9.242 1.24 18.363 3.377 27.233 1.78-.375 3.618-.586 5.508-.586zm106.615-53.295c14.698 0 26.654 11.953 26.654 26.647s-11.956 26.647-26.654 26.647-26.654-11.953-26.654-26.647 11.956-26.647 26.654-26.647zm106.615 71.059h-71.077c-4.911 0-8.885 3.973-8.885 8.882 0 14.694-11.956 26.647-26.654 26.647s-26.654-11.953-26.654-26.647c0-4.91-3.974-8.882-8.885-8.882h-71.077c-4.911 0-8.885 3.973-8.885 8.882v124.353c0 4.91 3.974 8.882 8.885 8.882h213.231c4.911 0 8.885-3.973 8.885-8.882v-124.352c.001-4.91-3.973-8.883-8.884-8.883zm-71.077 106.589h-71.077c-4.911 0-8.885-3.973-8.885-8.882s3.974-8.882 8.885-8.882h71.077c4.911 0 8.885 3.973 8.885 8.882s-3.974 8.882-8.885 8.882z" fill="url(#SVGID_2_)"/></g></g></g></svg>